<?xml version="1.0" encoding="utf-8"?>
<!-- Generator: Adobe Illustrator 16.0.0, SVG Export Plug-In . SVG Version: 6.00 Build 0)  -->
<!DOCTYPE svg PUBLIC "-//W3C//DTD SVG 1.1//EN" "http://www.w3.org/Graphics/SVG/1.1/DTD/svg11.dtd">
<svg version="1.1" id="图层_1" xmlns="http://www.w3.org/2000/svg" xmlns:xlink="http://www.w3.org/1999/xlink" x="0px" y="0px"
	 width="167px" height="167px" viewBox="0 0 167 167" enable-background="new 0 0 167 167" xml:space="preserve">
<path fill="#FFFFFF" d="M156.897,150.833c0,6.176-5.119,11.286-11.295,11.286H21.395c-6.176,0-11.293-5.11-11.293-11.286V37.914
	c0-6.175,5.118-11.292,11.293-11.292h11.293v-8.469c0-7.763,6.351-14.114,14.114-14.114h5.646c7.764,0,14.114,6.352,14.114,14.114
	v8.469h33.874v-8.469c0-7.763,6.351-14.114,14.114-14.114h5.647c7.762,0,14.112,6.352,14.112,14.114v8.469h11.294
	c6.176,0,11.295,5.117,11.295,11.292V150.833z M46.801,60.498H21.395v25.409h25.407V60.498z M46.801,91.551H21.395v28.229h25.407
	V91.551z M46.801,125.427H21.395v25.406h25.407V125.427z M55.268,18.152c0-1.499-1.323-2.821-2.821-2.821h-5.646
	c-1.502,0-2.825,1.322-2.825,2.821v25.409c0,1.499,1.323,2.823,2.825,2.823h5.646c1.499,0,2.821-1.325,2.821-2.823V18.152z
	 M80.677,60.498h-28.23v25.409h28.23V60.498z M80.677,91.551h-28.23v28.229h28.23V91.551z M80.677,125.427h-28.23v25.406h28.23
	V125.427z M114.549,60.498H86.32v25.409h28.229V60.498z M114.549,91.551H86.32v28.229h28.229V91.551z M114.549,125.427H86.32v25.406
	h28.229V125.427z M123.024,18.152c0-1.499-1.327-2.821-2.828-2.821h-5.647c-1.496,0-2.819,1.322-2.819,2.821v25.409
	c0,1.499,1.323,2.823,2.819,2.823h5.647c1.501,0,2.828-1.325,2.828-2.823V18.152z M145.603,60.498h-25.406v25.409h25.406V60.498z
	 M145.603,91.551h-25.406v28.229h25.406V91.551z M145.603,125.427h-25.406v25.406h25.406V125.427z"/>
</svg>
