<?xml version="1.0" encoding="utf-8"?>
<!-- Generator: Adobe Illustrator 16.0.0, SVG Export Plug-In . SVG Version: 6.00 Build 0)  -->
<!DOCTYPE svg PUBLIC "-//W3C//DTD SVG 1.1//EN" "http://www.w3.org/Graphics/SVG/1.1/DTD/svg11.dtd">
<svg version="1.1" id="图层_1" xmlns="http://www.w3.org/2000/svg" xmlns:xlink="http://www.w3.org/1999/xlink" x="0px" y="0px"
	 width="167px" height="167px" viewBox="0 0 167 167" enable-background="new 0 0 167 167" xml:space="preserve">
<g id="_x23_ffffffff">
	<path fill="#FFFFFF" d="M28.646,7.954h86.37c5.456,5.272,10.729,10.729,16.11,16.074c2.448,2.365,5.649,4.048,7.426,7.039
		c0.229,11.05,0,22.119,0.092,33.187c5.529-0.055,11.05,0.064,16.579-0.074c1.289,1.262,2.411,2.687,3.276,4.279
		c-0.165,27.99-0.009,55.988-0.073,83.977c-0.019,1.444-0.351,2.853-0.607,4.27c-1.417,1.168-3.019,2.42-4.979,2.31
		c-45.757,0.046-91.512,0-137.269,0.019c-2.163,0.128-4.131-0.801-6.063-1.62c-1.012-3.432-0.616-7.029-0.672-10.543
		c0.009-26.647,0.019-53.302,0-79.948c0.855-0.902,1.72-1.784,2.576-2.677c5.76-0.257,11.612,0.58,17.298-0.543
		C28.573,45.126,28.711,26.541,28.646,7.954 M49.266,33.395c0.019,1.325,0.147,2.641,0.386,3.947
		c1.481,0.488,3.064,0.368,4.591,0.405c9.165-0.056,18.319,0.009,27.474-0.037c0.469-0.506,1.39-1.527,1.859-2.033
		c-0.222-0.644-0.663-1.923-0.885-2.558c-7.655-0.286-15.31-0.065-22.974-0.129C56.24,33.073,52.707,32.677,49.266,33.395
		 M49.57,50.196c-0.552,1.666-0.552,4.748,1.969,4.361c21.825-0.027,43.658,0.092,65.484-0.064c0.238-0.589,0.717-1.767,0.956-2.355
		c-0.248-0.57-0.735-1.702-0.984-2.273c-20.922-0.175-41.846,0-62.769-0.091C52.67,49.8,51.069,49.699,49.57,50.196 M49.312,67.439
		c0.028,1.582-0.019,3.211,0.718,4.665c22.192-0.167,44.394,0.018,66.587-0.103c0.506-0.772,1.013-1.545,1.519-2.318
		c-0.304-0.569-0.901-1.702-1.205-2.272C94.397,67.264,71.854,67.209,49.312,67.439 M17.973,73.797
		c0.065,25.146,0.102,50.302-0.027,75.447c43.567-0.082,87.124-0.12,130.69,0.019c-0.118-25.294-0.109-50.597-0.009-75.89
		c-1.463,0.093-2.943,0.184-4.306,0.773c-2.411,1.878-4.84,3.763-7.481,5.337c-3.588,2.512-7.213,4.978-10.921,7.324
		c-2.392,1.748-4.94,3.284-7.314,5.061c-1.096,0.488-2.099,1.104-2.815,2.089c-0.229-0.01-0.681-0.028-0.911-0.028
		c-0.625,0.984-1.592,1.592-2.632,2.07c-2.272,1.491-4.489,3.063-6.689,4.656c-2.015,1.371-4.002,2.787-6.072,4.094
		c-1.619,1.096-3.174,2.291-4.896,3.229c-2.014,1.399-4.02,2.798-6.054,4.169c-1.986,0.92-3.432,3.118-5.76,3.164
		c-1.389-1.361-3.091-2.309-4.655-3.432c-1.481-0.938-2.962-1.868-4.325-2.962c-2.282-1.39-4.472-2.917-6.68-4.417
		c-1.481-0.947-2.963-1.887-4.333-2.981c-2.273-1.381-4.472-2.879-6.662-4.38c-1.96-1.224-3.957-2.456-5.484-4.223l-0.764,0.212
		c-1.214-1.233-2.64-2.209-4.141-3.055c-1.113-0.736-2.199-1.528-3.284-2.301c-0.92-0.599-1.822-1.215-2.724-1.831
		c-3.745-2.346-7.37-4.876-11.004-7.388c-1.674-1.059-3.331-2.126-4.959-3.249c-0.957-0.644-1.914-1.278-2.871-1.914
		C19.915,73.511,18.949,73.649,17.973,73.797z"/>
</g>
</svg>
