<?xml version="1.0" encoding="utf-8"?>
<!-- Generator: Adobe Illustrator 16.0.0, SVG Export Plug-In . SVG Version: 6.00 Build 0)  -->
<!DOCTYPE svg PUBLIC "-//W3C//DTD SVG 1.1//EN" "http://www.w3.org/Graphics/SVG/1.1/DTD/svg11.dtd">
<svg version="1.1" id="图层_1" xmlns="http://www.w3.org/2000/svg" xmlns:xlink="http://www.w3.org/1999/xlink" x="0px" y="0px"
	 width="167px" height="167px" viewBox="0 0 167 167" enable-background="new 0 0 167 167" xml:space="preserve">
<g>
	<path fill="#FFFFFF" d="M151.76,155.061c0,6.233-5.058,11.295-11.297,11.295H27.478c-6.238,0-11.298-5.062-11.298-11.295V87.27
		c0-6.241,5.06-11.302,11.298-11.302h3.765V53.371c0-28.953,23.776-52.727,52.729-52.727c28.95,0,52.728,23.774,52.728,52.727
		v22.597h3.763c6.239,0,11.297,5.061,11.297,11.302V155.061z M114.1,75.968V53.371c0-16.595-13.531-30.128-30.126-30.128
		c-16.597,0-30.132,13.534-30.132,30.128v22.597H114.1z"/>
</g>
</svg>
