<?xml version="1.0" encoding="utf-8"?>
<!-- Generator: Adobe Illustrator 16.0.0, SVG Export Plug-In . SVG Version: 6.00 Build 0)  -->
<!DOCTYPE svg PUBLIC "-//W3C//DTD SVG 1.1//EN" "http://www.w3.org/Graphics/SVG/1.1/DTD/svg11.dtd">
<svg version="1.1" id="图层_1" xmlns="http://www.w3.org/2000/svg" xmlns:xlink="http://www.w3.org/1999/xlink" x="0px" y="0px"
	 width="167px" height="167px" viewBox="0 0 167 167" enable-background="new 0 0 167 167" xml:space="preserve">
<path fill="#FFFFFF" d="M165.585,86.431H1.414V51.255c0-8.064,6.595-14.659,14.659-14.659h32.248v-14.66
	c0-4.853,3.938-8.792,8.796-8.792h52.765c4.857,0,8.797,3.939,8.797,8.792v14.66h32.248c8.059,0,14.658,6.595,14.658,14.659V86.431z
	 M165.585,139.2c0,8.062-6.6,14.655-14.658,14.655H16.073c-8.064,0-14.659-6.594-14.659-14.655V95.228h61.562v14.659
	c0,3.206,2.656,5.862,5.863,5.862h29.319c3.202,0,5.862-2.656,5.862-5.862V95.228h61.565V139.2z M106.953,24.87H60.046v11.726
	h46.907V24.87z M95.223,106.954H71.772v-11.73h23.451V106.954z"/>
</svg>
