<?xml version="1.0" encoding="utf-8"?>
<!-- Generator: Adobe Illustrator 16.0.0, SVG Export Plug-In . SVG Version: 6.00 Build 0)  -->
<!DOCTYPE svg PUBLIC "-//W3C//DTD SVG 1.1//EN" "http://www.w3.org/Graphics/SVG/1.1/DTD/svg11.dtd">
<svg version="1.1" id="图层_1" xmlns="http://www.w3.org/2000/svg" xmlns:xlink="http://www.w3.org/1999/xlink" x="0px" y="0px"
	 width="167px" height="167px" viewBox="0 0 167 167" enable-background="new 0 0 167 167" xml:space="preserve">
<g id="_x23_ffffffff_1_">
	<path fill="#FFFFFF" d="M7.59,6.717h86.349c2.42,1.037,4.093,3.12,5.914,4.933c6.035,6.101,12.174,12.126,18.181,18.264
		c-0.009,42.152-0.084,84.313,0.036,126.475c-0.887,1.597-2.092,2.962-3.652,3.924c-35.369-0.187-70.739-0.048-106.108-0.065
		c-0.841-0.468-1.672-0.935-2.504-1.411V7.492L6.581,7.8C6.833,7.529,7.337,6.988,7.59,6.717 M14.69,150.801
		c31.1-0.057,62.2-0.057,93.3,0.009c0.522-3.186,0.279-6.407,0.309-9.611c0.027-34.728-0.048-69.451,0.027-104.176
		c-5.503-0.027-11.014,0.01-16.525,0c-1.552,0.103-2.991-0.504-4.401-1.037c-0.42-6.325,0.057-12.678-0.243-19.001
		c-0.242-0.262-0.737-0.786-0.981-1.047c-23.822-0.168-47.663,0.028-71.485-0.094C14.587,60.826,14.587,105.817,14.69,150.801z"/>
	<path fill="#FFFFFF" d="M131.391,15.2c0.71-0.701,1.422-1.401,2.142-2.103c6.333,0.607,12.687-0.233,19.028,0.122
		c2.887,0.206,5.979-0.654,8.633,0.841c-0.048,38.117,0.038,76.224-0.036,114.338c-4.532,9.268-7.971,19.059-12.379,28.393
		c-0.889,2.083-2.691,2.138-4.374,0.971c-0.467-1.147-0.934-2.288-1.438-3.409c-1.354-3.68-3.093-7.204-4.615-10.817
		c-0.57-2.252-2.056-4.148-2.589-6.418c-1.438-3.335-3.138-6.634-4.315-10.043C131.354,89.787,131.466,52.494,131.391,15.2
		 M137.062,18.73c0.057,35.921-0.026,71.832,0.048,107.742c1.103,2.758,2.261,5.506,3.54,8.186c0.3,1.12,0.719,2.195,1.111,3.298
		c3.057-0.093,6.111-0.075,9.166-0.027c1.101-2.393,2.065-4.841,3.14-7.24c0.494-1.075,0.943-2.168,1.465-3.223
		c0.328-36.229,0.084-72.486,0.122-108.725c-2.148,0-4.299,0-6.446-0.01c0.048,33.959-0.009,67.927,0.027,101.887
		c0.021,1.064-0.41,1.952-1.297,2.662c-0.599-0.365-1.775-1.094-2.365-1.458c-0.057-34.359-0.018-68.73-0.018-103.091
		C142.724,18.74,139.893,18.74,137.062,18.73z"/>
	<path fill="#FFFFFF" d="M26.994,70.673c-0.309-1.625,0.093-3.765,2.223-3.484c9.669-0.094,19.338-0.046,28.998-0.019
		c2.037-0.196,3.27,2.56,1.103,3.476C48.546,70.785,37.765,70.702,26.994,70.673z"/>
	<path fill="#FFFFFF" d="M28.637,84.715c21.684-0.084,43.385-0.028,65.068-0.028c2.233-0.532,3.428,2.794,1.027,3.531
		c-22.56,0.11-45.122,0.036-67.692,0.036C26.825,86.892,26.778,84.78,28.637,84.715z"/>
	<path fill="#FFFFFF" d="M27.208,102.772c22.552-0.253,45.122,0.094,67.683-0.168c0.383,0.606,1.158,1.821,1.55,2.429
		c-2.165,1.672-4.932,1.233-7.464,1.271c-19.925-0.048-39.853,0-59.779-0.027C27.301,106.426,25.872,104.398,27.208,102.772z"/>
	<path fill="#FFFFFF" d="M26.862,123.876c-0.551-1.803,0.402-2.886,1.925-3.587c20.992,0.187,41.983,0.047,62.984,0.066
		c1.625-0.159,3.131,0.455,4.568,1.157c-0.206,0.561-0.626,1.682-0.841,2.251C72.639,124.129,49.741,123.886,26.862,123.876z"/>
</g>
</svg>
