<?xml version="1.0" encoding="utf-8"?>
<!-- Generator: Adobe Illustrator 16.0.0, SVG Export Plug-In . SVG Version: 6.00 Build 0)  -->
<!DOCTYPE svg PUBLIC "-//W3C//DTD SVG 1.1//EN" "http://www.w3.org/Graphics/SVG/1.1/DTD/svg11.dtd">
<svg version="1.1" id="图层_1" xmlns="http://www.w3.org/2000/svg" xmlns:xlink="http://www.w3.org/1999/xlink" x="0px" y="0px"
	 width="167px" height="167px" viewBox="0 0 167 167" enable-background="new 0 0 167 167" xml:space="preserve">
<g id="_x23_ffffffff">
	<path fill="#FFFFFF" d="M0,34.95C0.21,22.1,10.36,8.86,23.95,9c40.03,0.01,80.069-0.07,120.1,0.04
		c13.03,0.44,22.49,13.14,22.95,25.5v74.59c-0.37,10.021-6.029,20.19-15.45,24.261c-5.04,2.34-10.71,1.67-16.1,1.77
		c-0.75,8.65,2.85,16.939,7.659,23.91c-16.18,0.189-31.27-9.83-38.779-23.91c-27.13-0.07-54.27,0.07-81.39-0.061
		C9.8,134.65,0.3,121.75,0,109.29V34.95 M33.44,60.66c-6.48,1.73-11,8.69-9.73,15.33c1.02,7.41,8.98,12.88,16.27,11.119
		c7.1-1.34,12.15-8.909,10.56-15.979C49.25,63.55,40.79,58.33,33.44,60.66 M77.46,60.75c-6.35,1.88-10.68,8.77-9.41,15.32
		c1.07,7.26,8.77,12.651,15.97,11.1c7.271-1.21,12.561-8.97,10.83-16.19C93.471,63.35,84.82,58.22,77.46,60.75 M122.46,60.56
		c-6.33,1.51-10.95,8-10.2,14.48c0.48,6.86,6.84,12.59,13.721,12.37c7.85,0.109,14.67-7.59,13.379-15.39
		C138.58,64.17,130.05,58.37,122.46,60.56z"/>
</g>
</svg>
