<?xml version="1.0" encoding="utf-8"?>
<!-- Generator: Adobe Illustrator 16.0.0, SVG Export Plug-In . SVG Version: 6.00 Build 0)  -->
<!DOCTYPE svg PUBLIC "-//W3C//DTD SVG 1.1//EN" "http://www.w3.org/Graphics/SVG/1.1/DTD/svg11.dtd">
<svg version="1.1" id="图层_1" xmlns="http://www.w3.org/2000/svg" xmlns:xlink="http://www.w3.org/1999/xlink" x="0px" y="0px"
	 width="167px" height="167px" viewBox="0 0 167 167" enable-background="new 0 0 167 167" xml:space="preserve">
<path fill="#FFFFFF" d="M19.142,32.812v119.605c0,1.607-1.421,3.021-3.025,3.021h-6.042c-1.613,0-3.029-1.414-3.029-3.021V32.812
	C3.364,30.641,1,26.766,1,22.423c0-6.708,5.384-12.092,12.096-12.092c6.704,0,12.088,5.384,12.088,12.092
	C25.184,26.766,22.825,30.641,19.142,32.812 M164.253,100.551c0,3.495-2.177,4.82-4.916,6.237
	c-10.675,5.76-22.484,10.957-34.859,10.957c-17.381,0-25.694-13.227-46.289-13.227c-15.027,0-30.801,6.805-43.836,13.796
	c-1.041,0.565-1.984,0.847-3.118,0.847c-3.307,0-6.051-2.739-6.051-6.044v-70.1c0-2.265,1.139-3.874,2.932-5.195
	c2.266-1.511,5.009-2.834,7.462-4.067c11.904-6.042,26.36-11.332,39.774-11.332c14.831,0,26.453,4.912,39.586,11.051
	c2.646,1.328,5.381,1.801,8.312,1.801c14.836,0,30.799-12.852,34.957-12.852c3.308,0,6.047,2.744,6.047,6.051V100.551z"/>
</svg>
