<?xml version="1.0" encoding="utf-8"?>
<!-- Generator: Adobe Illustrator 16.0.0, SVG Export Plug-In . SVG Version: 6.00 Build 0)  -->
<!DOCTYPE svg PUBLIC "-//W3C//DTD SVG 1.1//EN" "http://www.w3.org/Graphics/SVG/1.1/DTD/svg11.dtd">
<svg version="1.1" id="图层_1" xmlns="http://www.w3.org/2000/svg" xmlns:xlink="http://www.w3.org/1999/xlink" x="0px" y="0px"
	 width="167px" height="167px" viewBox="0 0 167 167" enable-background="new 0 0 167 167" xml:space="preserve">
<g>
	<path fill="#FFFFFF" d="M150.009,59.862c-14.315,9.91-28.712,19.817-42.938,29.817c-5.963,4.12-16.046,12.563-23.478,12.563h-0.097
		h-0.09c-7.432,0-17.522-8.443-23.484-12.563c-14.218-10-28.623-19.907-42.841-29.817C10.569,55.461,1.306,45.094,1.306,36.745
		c0-8.993,4.858-16.698,14.679-16.698h135.02c7.993,0,14.69,6.607,14.69,14.679C165.695,45,158.084,54.266,150.009,59.862z
		 M165.695,134.536c0,8.068-6.607,14.674-14.69,14.674H15.985c-8.076,0-14.679-6.605-14.679-14.674V61.697
		c2.75,3.026,5.869,5.689,9.263,7.978c15.228,10.371,30.641,20.731,45.593,31.654c7.708,5.686,17.245,12.659,27.245,12.659h0.09
		h0.097c10.001,0,19.53-6.974,27.237-12.659c14.952-10.825,30.361-21.283,45.688-31.654c3.304-2.289,6.42-4.952,9.177-7.978V134.536
		z"/>
</g>
</svg>
