<?xml version="1.0" encoding="UTF-8" ?>
<!DOCTYPE svg PUBLIC "-//W3C//DTD SVG 1.1//EN" "http://www.w3.org/Graphics/SVG/1.1/DTD/svg11.dtd">
<svg width="28pt" height="360pt" viewBox="0 0 28 360" version="1.1" xmlns="http://www.w3.org/2000/svg">
<g id="#fefefefe">
<path fill="#fefefe" opacity="1.00" d=" M 4.30 0.00 L 5.19 0.00 C 5.49 0.41 6.10 1.22 6.41 1.63 C 7.88 1.56 9.35 1.52 10.82 1.38 C 11.25 1.03 12.10 0.34 12.53 0.00 L 13.99 0.00 C 13.99 0.36 14.01 1.09 14.02 1.45 C 14.94 1.55 16.80 1.73 17.72 1.82 C 16.98 3.35 15.73 4.12 13.96 4.12 C 13.93 5.52 13.91 6.92 13.88 8.32 C 12.58 7.90 11.29 7.46 10.00 7.02 C 10.00 7.49 10.00 8.44 10.01 8.91 C 11.89 8.91 13.77 8.93 15.66 8.94 C 15.67 11.11 15.68 13.29 15.70 15.46 C 13.51 15.13 10.98 14.15 9.02 15.76 C 11.55 16.50 15.85 14.37 16.58 18.04 C 14.39 18.06 12.19 18.06 10.00 18.03 L 10.00 19.16 C 11.95 19.20 13.91 19.25 15.86 19.39 C 15.43 22.46 12.01 20.94 10.00 21.46 C 10.00 21.77 10.00 22.39 10.00 22.70 C 12.03 22.62 14.07 22.53 16.10 22.51 C 18.27 17.99 18.43 12.95 18.81 8.05 C 17.87 7.89 16.01 7.59 15.07 7.44 C 15.46 5.53 17.16 5.22 18.71 4.86 C 18.68 3.24 18.66 1.62 18.63 0.00 L 21.07 0.00 C 21.07 1.72 21.07 3.44 21.06 5.16 C 22.97 5.48 25.28 4.74 26.94 5.79 C 26.52 12.09 26.97 18.48 25.84 24.72 C 24.50 26.97 21.52 25.83 19.40 26.28 C 19.02 25.56 18.64 24.85 18.27 24.14 C 17.89 24.88 17.15 26.36 16.77 27.11 C 15.75 26.47 14.84 25.67 13.79 25.07 C 9.18 24.72 4.60 25.55 0.00 25.70 L 0.00 23.18 C 2.74 23.04 5.48 22.99 8.20 22.61 C 5.96 20.89 2.99 21.53 0.39 21.01 C 2.25 18.39 5.75 19.46 8.36 18.34 C 5.72 17.98 3.06 18.08 0.41 17.95 C 1.33 14.16 5.67 16.48 8.34 15.82 C 6.23 14.35 3.69 15.03 1.34 15.26 C 1.33 13.16 1.33 11.06 1.33 8.95 C 3.32 8.96 5.31 8.95 7.30 8.95 C 7.26 8.30 7.22 7.65 7.17 7.00 C 5.86 7.46 4.55 7.96 3.23 8.43 C 3.15 7.04 3.07 5.64 2.98 4.24 C 1.89 3.84 0.90 3.27 0.01 2.54 C 1.25 1.36 2.68 0.51 4.30 0.00 M 6.27 3.68 C 6.02 4.02 5.53 4.70 5.28 5.04 C 7.70 4.89 10.46 5.70 12.54 4.05 C 10.46 3.73 8.36 3.71 6.27 3.68 M 21.09 7.86 C 21.06 13.02 21.27 18.52 18.65 23.18 C 20.00 23.35 21.35 23.54 22.70 23.76 C 22.97 23.35 23.49 22.52 23.76 22.11 C 24.16 17.35 24.00 12.56 24.11 7.78 C 23.35 7.80 21.84 7.84 21.09 7.86 M 3.89 10.95 C 3.93 11.39 4.00 12.28 4.03 12.73 C 4.83 12.73 6.45 12.73 7.25 12.73 C 7.28 12.14 7.31 11.54 7.34 10.95 C 6.48 10.95 4.76 10.95 3.89 10.95 M 9.89 10.94 C 9.93 11.39 10.00 12.29 10.04 12.74 C 10.85 12.73 12.46 12.73 13.27 12.72 C 13.29 12.13 13.31 11.54 13.34 10.95 C 12.48 10.95 10.75 10.95 9.89 10.94 Z" />
<path fill="#fefefe" opacity="1.00" d=" M 0.01 160.24 C 1.63 157.23 2.80 154.02 3.94 150.81 C 4.56 151.00 5.78 151.39 6.40 151.58 C 6.13 152.64 5.87 153.70 5.61 154.76 C 8.09 154.74 10.58 154.73 13.06 154.77 C 13.05 155.35 13.03 156.51 13.02 157.09 C 11.47 157.11 9.92 157.11 8.37 157.12 C 8.35 158.72 8.34 160.32 8.34 161.92 C 10.65 162.31 14.97 160.67 14.03 164.58 C 14.95 164.55 16.78 164.49 17.70 164.46 C 17.69 162.50 17.68 160.54 17.69 158.58 C 16.70 158.60 14.74 158.64 13.75 158.65 C 13.73 157.99 13.69 156.67 13.67 156.00 C 15.09 156.00 16.51 156.00 17.94 156.00 C 17.93 154.38 17.93 152.77 17.92 151.16 C 18.52 151.13 19.70 151.06 20.29 151.03 C 20.32 152.69 20.33 154.36 20.35 156.02 C 22.20 156.02 24.05 156.01 25.90 156.01 C 26.54 159.05 24.27 163.81 28.00 165.32 L 28.00 166.99 C 25.54 167.06 23.08 167.08 20.62 167.14 C 21.98 170.92 24.76 173.83 28.00 176.10 L 28.00 176.43 C 27.50 177.03 26.49 178.22 25.99 178.81 C 23.05 176.73 20.65 173.97 19.20 170.66 C 17.87 173.82 15.98 176.69 13.60 179.16 C 12.32 177.90 11.10 176.58 9.87 175.28 C 7.06 175.44 4.24 175.59 1.42 175.65 C 1.31 172.45 1.31 169.25 1.36 166.05 C 2.00 166.03 3.29 166.00 3.94 165.98 C 3.94 168.32 3.94 170.66 3.94 173.00 C 4.44 173.00 5.44 173.00 5.93 173.00 C 5.94 170.15 5.94 167.30 5.91 164.45 C 3.94 164.42 1.97 164.41 0.00 164.39 L 0.00 162.10 C 2.01 162.02 4.02 161.98 6.03 161.91 C 5.92 160.01 5.79 158.11 5.59 156.23 C 4.46 157.87 3.45 159.58 2.39 161.26 C 1.79 161.00 0.60 160.50 0.01 160.24 M 20.36 158.57 C 20.34 160.49 20.31 162.40 20.28 164.31 C 21.28 164.45 22.36 164.86 23.29 164.22 C 23.39 162.37 23.32 160.51 23.38 158.65 C 22.37 158.62 21.37 158.60 20.36 158.57 M 8.36 164.40 C 8.32 167.25 8.32 170.10 8.37 172.95 C 8.86 172.96 9.84 172.99 10.33 173.00 C 10.33 170.66 10.33 168.31 10.37 165.97 C 11.16 166.01 12.73 166.09 13.52 166.13 C 13.12 163.40 10.23 164.66 8.36 164.40 M 12.94 166.91 C 12.93 169.77 12.91 172.63 12.97 175.49 C 14.99 173.03 16.60 170.24 17.30 167.11 C 15.84 167.04 14.39 166.98 12.94 166.91 Z" />
<path fill="#fefefe" opacity="1.00" d=" M 5.07 331.82 C 5.69 332.05 6.93 332.51 7.55 332.74 C 4.54 341.54 6.62 350.92 5.78 360.00 L 3.44 360.00 C 3.25 355.02 3.30 350.04 3.43 345.06 C 2.64 346.30 1.87 347.54 1.07 348.77 C 0.80 348.21 0.27 347.09 0.00 346.53 L 0.00 345.76 C 2.29 341.35 3.94 336.66 5.07 331.82 Z" />
<path fill="#fefefe" opacity="1.00" d=" M 7.95 333.84 C 13.98 333.84 20.02 333.72 26.06 333.76 C 26.09 337.16 26.07 340.55 26.03 343.95 C 21.01 341.36 15.54 344.37 10.36 342.65 C 10.35 343.63 10.35 344.61 10.36 345.59 C 11.96 345.57 13.57 345.57 15.18 345.55 C 18.73 343.70 22.84 344.62 26.66 344.63 C 26.32 348.07 25.14 351.32 23.39 354.28 C 24.91 355.30 26.45 356.28 28.00 357.26 L 28.00 357.78 C 27.60 358.32 26.79 359.41 26.39 359.96 C 24.70 358.79 23.04 357.58 21.45 356.30 C 19.48 357.68 17.44 358.96 15.27 360.00 L 14.99 360.00 C 14.60 359.48 13.80 358.43 13.41 357.90 C 15.38 356.62 17.46 355.51 19.50 354.34 C 18.44 352.00 17.52 349.60 16.92 347.10 C 14.92 348.33 12.51 347.91 10.28 348.12 C 10.31 348.80 10.37 350.17 10.40 350.85 C 12.49 350.87 14.58 350.84 16.67 351.00 C 16.67 351.51 16.67 352.52 16.68 353.03 C 14.58 353.16 12.48 353.13 10.38 353.14 C 10.34 355.35 10.33 357.56 10.29 359.78 C 9.70 359.79 8.52 359.81 7.93 359.81 C 7.94 351.15 7.93 342.49 7.95 333.84 M 10.34 336.09 C 10.34 337.51 10.34 338.94 10.35 340.38 C 11.61 340.35 12.88 340.33 14.14 340.31 C 14.09 338.89 14.04 337.47 13.99 336.06 C 12.77 336.06 11.55 336.07 10.34 336.09 M 16.95 335.94 C 16.93 337.41 16.93 338.88 16.94 340.36 C 19.20 340.29 21.47 340.26 23.74 340.20 C 23.69 338.82 23.65 337.45 23.61 336.08 C 21.39 336.01 19.17 335.97 16.95 335.94 M 19.40 346.82 C 20.02 348.66 20.68 350.50 21.40 352.32 C 22.31 350.55 23.14 348.74 23.88 346.91 C 22.39 346.86 20.90 346.83 19.40 346.82 Z" />
</g>
</svg>
